<svg xmlns="http://www.w3.org/2000/svg" width="880" height="460" viewBox="0 0 880 460" font-family="Helvetica,Arial,sans-serif">
<rect width="880" height="460" fill="white"/>
<text x="430.0" y="24.0" font-size="15" fill="#222" text-anchor="middle" font-weight="bold" >S-BASE thread scaling（t16→t128）・R1-R5 mean</text>
<text x="220.0" y="70.0" font-size="13" fill="#222" text-anchor="middle" font-weight="bold" >tpmC</text>
<line x1="70.0" y1="330.0" x2="370.0" y2="330.0" stroke="#e0e0e0" stroke-width="1" />
<text x="64.0" y="334.0" font-size="10" fill="#666666" text-anchor="end" font-weight="normal" >0</text>
<line x1="70.0" y1="205.0" x2="370.0" y2="205.0" stroke="#e0e0e0" stroke-width="1" />
<text x="64.0" y="209.0" font-size="10" fill="#666666" text-anchor="end" font-weight="normal" >25,000</text>
<line x1="70.0" y1="80.0" x2="370.0" y2="80.0" stroke="#e0e0e0" stroke-width="1" />
<text x="64.0" y="84.0" font-size="10" fill="#666666" text-anchor="end" font-weight="normal" >50,000</text>
<text x="70.0" y="345.0" font-size="11" fill="#222" text-anchor="middle" font-weight="normal" >t16</text>
<text x="170.0" y="345.0" font-size="11" fill="#222" text-anchor="middle" font-weight="normal" >t32</text>
<text x="270.0" y="345.0" font-size="11" fill="#222" text-anchor="middle" font-weight="normal" >t64</text>
<text x="370.0" y="345.0" font-size="11" fill="#222" text-anchor="middle" font-weight="normal" >t128</text>
<polyline points="70.0,270.9 170.0,240.1 270.0,214.8 370.0,195.3" fill="none" stroke="#4e79a7" stroke-width="2" />
<circle cx="70.0" cy="270.9" r="3.5" fill="#4e79a7"/>
<circle cx="170.0" cy="240.1" r="3.5" fill="#4e79a7"/>
<circle cx="270.0" cy="214.8" r="3.5" fill="#4e79a7"/>
<circle cx="370.0" cy="195.3" r="3.5" fill="#4e79a7"/>
<text x="376.0" y="211.3" font-size="10" fill="#4e79a7" text-anchor="start" font-weight="normal" >26,947</text>
<polyline points="70.0,279.4 170.0,270.4 270.0,262.8 370.0,254.8" fill="none" stroke="#59a14f" stroke-width="2" />
<circle cx="70.0" cy="279.4" r="3.5" fill="#59a14f"/>
<circle cx="170.0" cy="270.4" r="3.5" fill="#59a14f"/>
<circle cx="270.0" cy="262.8" r="3.5" fill="#59a14f"/>
<circle cx="370.0" cy="254.8" r="3.5" fill="#59a14f"/>
<text x="376.0" y="246.8" font-size="10" fill="#59a14f" text-anchor="start" font-weight="normal" >15,033</text>
<polyline points="70.0,290.0 170.0,276.7 270.0,263.3 370.0,251.8" fill="none" stroke="#f28e2b" stroke-width="2" />
<circle cx="70.0" cy="290.0" r="3.5" fill="#f28e2b"/>
<circle cx="170.0" cy="276.7" r="3.5" fill="#f28e2b"/>
<circle cx="270.0" cy="263.3" r="3.5" fill="#f28e2b"/>
<circle cx="370.0" cy="251.8" r="3.5" fill="#f28e2b"/>
<text x="376.0" y="255.8" font-size="10" fill="#f28e2b" text-anchor="start" font-weight="normal" >15,632</text>
<text x="640.0" y="70.0" font-size="13" fill="#222" text-anchor="middle" font-weight="bold" >NEW_ORDER p99 (ms)</text>
<line x1="490.0" y1="330.0" x2="790.0" y2="330.0" stroke="#e0e0e0" stroke-width="1" />
<text x="484.0" y="334.0" font-size="10" fill="#666666" text-anchor="end" font-weight="normal" >0</text>
<line x1="490.0" y1="205.0" x2="790.0" y2="205.0" stroke="#e0e0e0" stroke-width="1" />
<text x="484.0" y="209.0" font-size="10" fill="#666666" text-anchor="end" font-weight="normal" >500</text>
<line x1="490.0" y1="80.0" x2="790.0" y2="80.0" stroke="#e0e0e0" stroke-width="1" />
<text x="484.0" y="84.0" font-size="10" fill="#666666" text-anchor="end" font-weight="normal" >1,000</text>
<text x="490.0" y="345.0" font-size="11" fill="#222" text-anchor="middle" font-weight="normal" >t16</text>
<text x="590.0" y="345.0" font-size="11" fill="#222" text-anchor="middle" font-weight="normal" >t32</text>
<text x="690.0" y="345.0" font-size="11" fill="#222" text-anchor="middle" font-weight="normal" >t64</text>
<text x="790.0" y="345.0" font-size="11" fill="#222" text-anchor="middle" font-weight="normal" >t128</text>
<polyline points="490.0,309.0 590.0,303.8 690.0,286.8 790.0,252.8" fill="none" stroke="#4e79a7" stroke-width="2" />
<circle cx="490.0" cy="309.0" r="3.5" fill="#4e79a7"/>
<circle cx="590.0" cy="303.8" r="3.5" fill="#4e79a7"/>
<circle cx="690.0" cy="286.8" r="3.5" fill="#4e79a7"/>
<circle cx="790.0" cy="252.8" r="3.5" fill="#4e79a7"/>
<text x="796.0" y="244.8" font-size="10" fill="#4e79a7" text-anchor="start" font-weight="normal" >309</text>
<polyline points="490.0,301.5 590.0,279.2 690.0,236.1 790.0,150.5" fill="none" stroke="#59a14f" stroke-width="2" />
<circle cx="490.0" cy="301.5" r="3.5" fill="#59a14f"/>
<circle cx="590.0" cy="279.2" r="3.5" fill="#59a14f"/>
<circle cx="690.0" cy="236.1" r="3.5" fill="#59a14f"/>
<circle cx="790.0" cy="150.5" r="3.5" fill="#59a14f"/>
<text x="796.0" y="166.5" font-size="10" fill="#59a14f" text-anchor="start" font-weight="normal" >718</text>
<polyline points="490.0,296.2 590.0,275.1 690.0,233.5 790.0,153.8" fill="none" stroke="#f28e2b" stroke-width="2" />
<circle cx="490.0" cy="296.2" r="3.5" fill="#f28e2b"/>
<circle cx="590.0" cy="275.1" r="3.5" fill="#f28e2b"/>
<circle cx="690.0" cy="233.5" r="3.5" fill="#f28e2b"/>
<circle cx="790.0" cy="153.8" r="3.5" fill="#f28e2b"/>
<text x="796.0" y="157.8" font-size="10" fill="#f28e2b" text-anchor="start" font-weight="normal" >705</text>
<rect x="70.0" y="44.0" width="14.0" height="10.0" fill="#4e79a7" opacity="1.0"/>
<text x="89.0" y="53.0" font-size="11" fill="#222" text-anchor="start" font-weight="normal" >TiDB</text>
<rect x="220.0" y="44.0" width="14.0" height="10.0" fill="#59a14f" opacity="1.0"/>
<text x="239.0" y="53.0" font-size="11" fill="#222" text-anchor="start" font-weight="normal" >CockroachDB</text>
<rect x="370.0" y="44.0" width="14.0" height="10.0" fill="#f28e2b" opacity="1.0"/>
<text x="389.0" y="53.0" font-size="11" fill="#222" text-anchor="start" font-weight="normal" >YugabyteDB</text>
<text x="12.0" y="399.0" font-size="10" fill="#666666" text-anchor="start" font-weight="normal" >N=1・同 scope 內比較 thread 水位形狀；不可外推容量或跨 scope 比較</text>
<text x="12.0" y="413.0" font-size="9" fill="#666666" text-anchor="start" font-weight="normal" >來源: TiDB: results/tidb-tc1/S-BASE/vm-3node-haproxy-3s3r-rc-pd-sched-l4r4/tidb-vm-3node-haproxy-3s3r-rc-20260601T003316+0800/summary.json</text>
<text x="12.0" y="424.0" font-size="9" fill="#666666" text-anchor="start" font-weight="normal" >來源: CockroachDB: results/crdb-tc1/S-BASE/vm-3node-haproxy-3s3r-rc/crdb-vm-3node-haproxy-3s3r-rc-20260602T051500+0800/summary.json</text>
<text x="12.0" y="435.0" font-size="9" fill="#666666" text-anchor="start" font-weight="normal" >來源: YugabyteDB: results/yuga-tc1/S-BASE/vm-3node-haproxy-3s3r-rc/ybdb-vm-3node-haproxy-3s3r-rc-20260525T193740+0800/summary.json</text>
</svg>